<svg height="512pt" viewBox="-59 0 511 512" width="512pt" xmlns="http://www.w3.org/2000/svg">
    <path d="m196.5 105c-50.179688 0-91 40.820312-91 91s40.820312 91 91 91 91-40.820312 91-91-40.820312-91-91-91zm61 106h-46v46h-30v-46h-46v-30h46v-46h30v46h46zm0 0" />
    <path d="m196.5 0c-108.074219 0-196 87.925781-196 196 0 44.578125 14.585938 86.585938 42.183594 121.476562l153.816406 194.523438 153.816406-194.523438c27.597656-34.894531 42.183594-76.898437 42.183594-121.476562 0-108.074219-87.925781-196-196-196zm0 317c-66.71875 0-121-54.28125-121-121s54.28125-121 121-121 121 54.28125 121 121-54.28125 121-121 121zm0 0" />
</svg>