<svg id="Capa_1" enable-background="new 0 0 512 512" height="512" viewBox="0 0 512 512" width="512" xmlns="http://www.w3.org/2000/svg">
    <g>
        <g>
            <g>
                <path d="m211.268 89.329c-4.143 0-7.5-3.357-7.5-7.5v-12c0-4.143 3.357-7.5 7.5-7.5s7.5 3.357 7.5 7.5v12c0 4.143-3.358 7.5-7.5 7.5z" />
            </g>
            <g>
                <path d="m286 125.8c-17.2 0-31.193-15.258-31.193-34.013 0-23.519 21.859-23.519 31.193-23.519s31.193 0 31.193 23.519c0 18.755-13.993 34.013-31.193 34.013zm0-42.531c-15.538 0-16.193 2.611-16.193 8.519 0 10.483 7.265 19.013 16.193 19.013s16.193-8.529 16.193-19.013c0-5.908-.655-8.519-16.193-8.519z" />
            </g>
            <g>
                <path d="m360.732 89.329c-4.143 0-7.5-3.357-7.5-7.5v-12c0-4.143 3.357-7.5 7.5-7.5s7.5 3.357 7.5 7.5v12c0 4.143-3.357 7.5-7.5 7.5z" />
            </g>
        </g>
        <g>
            <g>
                <path d="m163.551 251.06c-4.143 0-7.5-3.357-7.5-7.5v-12c0-4.143 3.357-7.5 7.5-7.5s7.5 3.357 7.5 7.5v12c0 4.142-3.358 7.5-7.5 7.5z" />
            </g>
            <g>
                <path d="m288.448 251.06c-4.143 0-7.5-3.357-7.5-7.5v-12c0-4.143 3.357-7.5 7.5-7.5s7.5 3.357 7.5 7.5v12c0 4.142-3.357 7.5-7.5 7.5z" />
            </g>
            <g>
                <path d="m226 258.203c-8.478 0-16.539-3.671-22.118-10.072-2.721-3.122-2.396-7.86.727-10.582 3.122-2.721 7.859-2.396 10.582.727 2.729 3.132 6.669 4.928 10.81 4.928s8.08-1.796 10.81-4.928c2.722-3.123 7.46-3.448 10.582-.727 3.123 2.722 3.447 7.46.727 10.582-5.581 6.401-13.642 10.072-22.12 10.072z" />
            </g>
        </g>
        <path d="m484.5 457h-191v-132h27.757c4.143 0 7.5-3.357 7.5-7.5s-3.357-7.5-7.5-7.5h-216.571c-4.189 0-8.077-2.081-10.401-5.566l-26.666-40.001c-2.809-4.211-2.809-9.654 0-13.866l26.666-40c2.324-3.485 6.212-5.566 10.401-5.566h269.296c6.893 0 12.5 5.607 12.5 12.5v80c0 6.893-5.607 12.5-12.5 12.5h-22.725c-4.143 0-7.5 3.357-7.5 7.5s3.357 7.5 7.5 7.5h22.725c15.163 0 27.5-12.337 27.5-27.5v-80c0-15.163-12.337-27.5-27.5-27.5h-80.482v-25h113.814c9.216 0 17.77-4.578 22.882-12.246l26.666-39.999c6.179-9.267 6.179-21.243 0-30.509l-26.666-40c-5.112-7.669-13.666-12.247-22.882-12.247h-114.564c-3.485-17.201-18.693-30-36.75-30-18.132 0-33.278 12.776-36.748 30h-81.234c-15.163 0-27.5 12.337-27.5 27.5v25c0 4.143 3.357 7.5 7.5 7.5s7.5-3.357 7.5-7.5v-25c0-6.893 5.607-12.5 12.5-12.5h269.296c4.189 0 8.077 2.081 10.401 5.566l26.666 40.001c2.809 4.211 2.809 9.654 0 13.866l-26.666 40c-2.324 3.485-6.212 5.566-10.401 5.566h-269.295c-6.893 0-12.5-5.607-12.5-12.5v-25c0-4.143-3.357-7.5-7.5-7.5s-7.5 3.357-7.5 7.5v25c0 15.163 12.337 27.5 27.5 27.5h80.481v25h-113.814c-9.216 0-17.77 4.578-22.882 12.246l-26.666 39.999c-6.179 9.267-6.179 21.243 0 30.509l26.666 40c5.112 7.669 13.666 12.247 22.882 12.247h113.814v132h-191c-15.164 0-27.5 12.336-27.5 27.5s12.336 27.5 27.5 27.5h457c15.164 0 27.5-12.336 27.5-27.5s-12.336-27.5-27.5-27.5zm-228.5-442c9.757 0 18.123 6.228 21.218 15h-42.446c3.081-8.783 11.428-15 21.228-15zm-22.5 150h45v25h-45zm0 160h45v132h-45zm251 172h-457c-6.893 0-12.5-5.607-12.5-12.5s5.607-12.5 12.5-12.5h457c6.893 0 12.5 5.607 12.5 12.5s-5.607 12.5-12.5 12.5z" />
    </g>
</svg>