<svg xmlns="http://www.w3.org/2000/svg" version="1.1" x="0px" y="0px" viewBox="0 0 100 100">
    <g transform="translate(0,-952.36218)">
        <path
            style="text-indent:0;text-transform:none;direction:ltr;block-progression:tb;baseline-shift:baseline;color:#000000;enable-background:accumulate;"
            d="m 29.2188,959.45592 -5.4688,10.90625 -3.75,0 c -1.0472,10e-5 -1.9999,0.95283 -2,2 l 0,12 c 10e-5,1.04717 0.9528,1.9999 2,2 l 3.1562,0 L 28,1044.5184 c 0.078,0.9941 1.0029,1.8467 2,1.8438 l 40,0 c 0.9971,0 1.922,-0.8497 2,-1.8438 l 4.8438,-58.15623 3.1562,0 c 1.0472,-10e-5 1.9999,-0.95283 2,-2 l 0,-12 c -1e-4,-1.04717 -0.9528,-1.9999 -2,-2 l -3.75,0 -5.4688,-10.90625 C 70.449,958.80241 69.7331,958.36284 69,958.36217 l -38,0 c -0.8456,0.0111 -1.4014,0.43413 -1.7812,1.09375 z m 3,2.90625 35.5624,0 4,8 -43.5624,0 z m -10.2188,12 56,0 0,8 -56,0 z m 5.1875,12 45.625,0 -1.5,18.00003 -8.75,0 c -2.6661,-4.1729 -7.259,-7.00002 -12.5625,-7.00002 -5.3035,0 -9.8964,2.82712 -12.5625,7.00002 l -8.75,0 z M 50,1001.3622 c 4.2546,0 7.9146,2.3918 9.75,5.9062 0.3322,0.6535 1.0481,1.0931 1.7812,1.0938 l 9.4688,0 -0.6875,8 -8.7813,0 c -0.7268,0 -1.4405,0.4205 -1.7812,1.0625 -1.8354,3.5145 -5.4954,5.9375 -9.75,5.9375 -4.2546,0 -7.9146,-2.423 -9.75,-5.9375 -0.3407,-0.642 -1.0544,-1.0677 -1.7812,-1.0625 l -8.7813,0 -0.6875,-8 9.4688,0 c 0.7331,-7e-4 1.449,-0.4403 1.7812,-1.0938 1.8354,-3.5144 5.4954,-5.9062 9.75,-5.9062 z m -20,19 7.4688,0 c 2.67,4.1524 7.2433,7 12.5312,7 5.2879,0 9.8612,-2.8476 12.5312,-7 l 7.4688,0 -1.8438,22 -36.3124,0 z"
            fill="#000000" fill-opacity="1" stroke="none" />
    </g>
</svg>