<?xml version="1.0" encoding="iso-8859-1"?>
<!-- Generator: Adobe Illustrator 19.0.0, SVG Export Plug-In . SVG Version: 6.00 Build 0)  -->
<svg version="1.1" id="Capa_1" xmlns="http://www.w3.org/2000/svg" x="0px" y="0px" viewBox="0 0 512 512" style="enable-background:new 0 0 512 512;" xml:space="preserve">
<g>
	<g>
		<path d="M112,96C50.24,96,0,146.24,0,208c0,57.472,89.856,159.264,100.096,170.688c3.04,3.36,7.36,5.312,11.904,5.312
			s8.864-1.952,11.904-5.312C134.144,367.264,224,265.472,224,208C224,146.24,173.76,96,112,96z M112,343.584
			C77.056,302.144,32,238.528,32,208c0-44.096,35.904-80,80-80s80,35.904,80,80C192,238.496,146.944,302.144,112,343.584z"/>
	</g>
</g>
<g>
	<g>
		<path d="M112,160c-26.464,0-48,21.536-48,48s21.536,48,48,48s48-21.536,48-48S138.464,160,112,160z M112,224
			c-8.832,0-16-7.168-16-16c0-8.832,7.168-16,16-16c8.832,0,16,7.168,16,16C128,216.832,120.832,224,112,224z"/>
	</g>
</g>
<g>
	<g>
		<path d="M496,0H368c-8.832,0-16,7.168-16,16v96v64c0,8.832,7.168,16,16,16c8.832,0,16-7.168,16-16v-48h112c8.832,0,16-7.168,16-16
			V16C512,7.168,504.832,0,496,0z M480,96h-96V32h96V96z"/>
	</g>
</g>
<g>
	<g>
		<path d="M448,352H288c-17.632,0-32-14.368-32-32c0-17.632,14.368-32,32-32h34.944c6.624,18.592,24.224,32,45.056,32
			c26.464,0,48-21.536,48-48s-21.536-48-48-48c-20.832,0-38.432,13.408-45.056,32H288c-35.296,0-64,28.704-64,64
			c0,35.296,28.704,64,64,64h160c17.632,0,32,14.368,32,32c0,17.632-14.368,32-32,32H157.056c-6.624-18.592-24.224-32-45.056-32
			c-26.464,0-48,21.536-48,48s21.536,48,48,48c20.832,0,38.432-13.408,45.056-32H448c35.296,0,64-28.704,64-64
			C512,380.704,483.296,352,448,352z M368,256c8.832,0,16,7.168,16,16c0,8.832-7.168,16-16,16c-8.832,0-16-7.168-16-16
			C352,263.168,359.168,256,368,256z M112,480c-8.832,0-16-7.168-16-16c0-8.832,7.168-16,16-16c8.832,0,16,7.168,16,16
			C128,472.832,120.832,480,112,480z"/>
	</g>
</g>
<g>
</g>
<g>
</g>
<g>
</g>
<g>
</g>
<g>
</g>
<g>
</g>
<g>
</g>
<g>
</g>
<g>
</g>
<g>
</g>
<g>
</g>
<g>
</g>
<g>
</g>
<g>
</g>
<g>
</g>
</svg>
