<svg xmlns="http://www.w3.org/2000/svg" viewBox="0 0 48 48"><g><path d="M37.87,30.05,36.15,18c1.55,0,2.91.27,3.61-1.08a4,4,0,0,0,0-7.84A2,2,0,0,0,38,8H33c-.53,0,0,.68-2.11-3.45a.82.82,0,0,0-.2-.25A3,3,0,0,0,28,0H25a1,1,0,0,0-1,1V5a1,1,0,0,0,1,1c3.14,0,3.44.09,4.24-.28L30.68,8.6A5,5,0,0,0,28.1,12H25a1,1,0,0,0,0,2h3.1A5,5,0,0,0,30,17L28.49,35.08a1,1,0,0,1-1,.92H22c0-9.8.11-9.42-.3-10.29C22.84,24.59,21,20,17,20H16V13a1,1,0,0,0-1-1H1a1,1,0,0,0-1,1V25a1,1,0,0,0,1,1H6.1A13,13,0,0,0,0,37v4a1,1,0,0,0,1,1H4.08a7,7,0,0,0,2,4H1a1,1,0,0,0,0,2H11a7,7,0,0,0,6.92-6H31.08a7,7,0,0,0,2,4H28a1,1,0,0,0,0,2H38a7,7,0,0,0,6.92-6H47a1,1,0,0,0,1-1A11,11,0,0,0,37.87,30.05ZM28,4H26V2h2A1,1,0,0,1,28,4ZM40,14.72V11.28A2,2,0,0,1,40,14.72ZM31,12h-.82A3,3,0,0,1,33,10h5v6H33a3,3,0,0,1-2.82-2H31A1,1,0,0,0,31,12ZM20,40H9V37a4,4,0,0,1,4-4h7ZM17,22a3,3,0,0,1,2.83,2H16V22ZM9,14v3.38c-1.14-.57-1-.48-2,0V14ZM2,24V14H5c0,5.21-.22,5.62.67,5.94.53.19.83-.07,2.33-.82,1.68.84,1.74.95,2.21.85,1.08-.23.79-.94.79-6h3V24ZM2,37A11,11,0,0,1,13,26h6a1,1,0,0,1,1,1v4H13a6,6,0,0,0-6,6v3H2Zm4.1,5H9.28a2,2,0,0,0,3.44,0H15.9A5,5,0,0,1,6.1,42ZM22,40V38h5.49a3,3,0,0,0,3-2.75L31.92,18h2.21L36,30.88,32.32,40Zm11.1,2h3.18a2,2,0,0,0,3.44,0H42.9A5,5,0,0,1,33.1,42Zm1.38-2,3.18-8A9,9,0,0,1,46,40Z"/><path d="M24,46H22a1,1,0,0,0,0,2h2A1,1,0,0,0,24,46Z"/></g></svg>