<svg xmlns="http://www.w3.org/2000/svg" version="1.1" x="0px" y="0px" viewBox="0 0 512 640" style="enable-background:new 0 0 512 512;" xml:space="preserve"><g><g><g><path d="M256.104,0C148.61,0,61.161,87.452,61.161,194.943C61.161,296.086,149.793,439.648,256,512     c106.208-72.352,194.839-215.912,194.839-317.057C450.839,87.452,363.48,0,256.104,0z M256.159,359.154     c-91.828,0-166.536-74.706-166.536-166.533c0-91.655,74.708-166.221,166.536-166.221c91.655,0,166.219,74.566,166.219,166.221     C422.378,284.448,347.814,359.154,256.159,359.154z"/></g><g><path d="M319.067,79.401c-2.276,0-4.125,1.851-4.125,4.125v47.977c0,6.807-4.143,12.343-9.227,12.343h-6.532V83.526     c0-2.274-1.851-4.125-4.125-4.125s-4.13,1.851-4.13,4.125v60.319h-4.951c-5.088,0-9.224-5.536-9.224-12.343V83.526     c0-2.274-1.851-4.125-4.125-4.125s-4.125,1.851-4.125,4.125v47.977c0,11.355,7.838,20.597,17.474,20.597h4.951v26.426h-9.239     v98.515c0,7.808,6.352,14.159,14.155,14.159c7.809,0,14.162-6.352,14.162-14.159v-98.515h-10.823V152.1h6.532     c9.639,0,17.475-9.242,17.475-20.597V83.526C323.19,81.252,321.342,79.401,319.067,79.401z"/><path d="M220.364,220.333v-27.991h10.03V96.648c0-7.808-6.352-14.16-14.155-14.16c-7.808,0-14.159,6.352-14.159,14.16v95.694     h10.03v27.991c-13.172,2.718-23.3,18.254-23.3,36.954c0,20.611,12.307,37.379,27.429,37.379     c15.123,0,27.425-16.768,27.425-37.379C243.664,238.587,233.536,223.052,220.364,220.333z"/></g></g></g><text x="0" y="527" fill="#000000" font-size="5px" font-weight="bold" font-family="'Helvetica Neue', Helvetica, Arial-Unicode, Arial, Sans-serif">Created by Flatart</text><text x="0" y="532" fill="#000000" font-size="5px" font-weight="bold" font-family="'Helvetica Neue', Helvetica, Arial-Unicode, Arial, Sans-serif">from the Noun Project</text></svg>