<svg xmlns="http://www.w3.org/2000/svg" version="1.1" x="0px" y="0px" viewBox="0 0 500 500" style="enable-background:new 0 0 500 500;" xml:space="preserve"><g><g><g><path d="M256,361c-55.14,0-100-44.859-100-100c0-55.14,44.86-100,100-100c28.404,0,55.567,12.145,74.525,33.32     c3.684,4.115,3.335,10.437-0.78,14.121c-4.114,3.685-10.437,3.335-14.12-0.78C300.456,190.717,278.724,181,256,181     c-44.112,0-80,35.888-80,80s35.888,80,80,80s80-35.888,80-80c-0.001-4.669-0.406-9.349-1.204-13.906     c-0.952-5.44,2.687-10.623,8.126-11.575c5.439-0.951,10.622,2.686,11.575,8.125c0.996,5.692,1.502,11.53,1.503,17.353     C356,316.141,311.141,361,256,361z"/></g><g><g><path d="M301.012,481c-0.007,0-0.014,0-0.021,0l-90.555-0.19c-2.68-0.006-5.246-1.087-7.122-3.001      c-9.695-9.896-18.555-18.849-27.123-27.508C91.105,364.311,68.238,341.199,62.737,235.72c-0.288-5.516,3.95-10.22,9.465-10.507      c5.511-0.294,10.22,3.95,10.507,9.465c5.104,97.87,24.8,117.776,107.698,201.555c7.714,7.796,15.665,15.831,24.257,24.585      l82.091,0.173c14.958-15.578,28.29-29.116,40.14-41.148c18.003-18.28,32.222-32.72,43.936-45.919      c3.665-4.131,9.986-4.507,14.117-0.842c4.131,3.666,4.508,9.986,0.842,14.117c-12.058,13.587-26.438,28.189-44.645,46.677      c-12.58,12.774-26.84,27.254-42.909,44.039C306.349,479.886,303.739,481,301.012,481z M417.732,350.483      c-1.623,0-3.269-0.396-4.792-1.229c-4.845-2.651-6.623-8.729-3.972-13.573c20.13-36.782,21.926-78.961,21.926-190.123      c0-9.661-0.013-19.818-0.026-30.512c-0.013-10.348-0.026-21.197-0.029-32.585c-21.308,2.691-39.967,4.004-56.764,4.004      c-47.741,0-84.113-10.574-113.726-33.18c-36.31,22.312-79.18,33.613-127.558,33.613c-16.671,0-34.04-1.369-51.783-4.075      C81.006,88.322,81.003,93.697,81,98.952c-0.006,8.312-0.011,16.325-0.011,24.053c0,20.734,0.035,42.617,0.288,62.174      c0.072,5.522-4.347,10.057-9.87,10.128c-5.56,0.093-10.057-4.347-10.128-9.87c-0.255-19.671-0.29-41.632-0.29-62.433      c0-7.733,0.005-15.75,0.011-24.066C61.005,89.98,61.012,80.674,61.012,71c0-2.969,1.319-5.785,3.602-7.685      s5.291-2.686,8.21-2.149c20.652,3.804,40.828,5.733,59.969,5.733c47.154,0,88.434-11.518,122.694-34.233      c3.701-2.453,8.573-2.173,11.967,0.686c26.828,22.592,60.708,33.114,106.622,33.114c18.818,0,40.25-1.755,65.522-5.365      c2.92-0.417,5.87,0.475,8.069,2.436s3.422,4.793,3.341,7.739l-0.17,6.174c0,13.218,0.016,25.724,0.03,37.572      c0.014,10.703,0.026,20.869,0.026,30.537c0,114.951-1.997,158.823-24.381,199.724      C424.696,348.604,421.269,350.483,417.732,350.483z"/></g><g><path d="M311.016,411c-2.761,0-5.509-1.137-7.485-3.364c-3.664-4.132-3.286-10.452,0.846-14.117      c77.921-69.116,87.845-82.684,87.845-163.521c0-14.845-0.376-31.94-0.811-51.735c-0.308-13.976-0.649-29.516-0.91-46.672      c-1.31,0.013-2.61,0.02-3.9,0.02c-52.015,0-95.194-10.313-131.78-31.507c-9.377,4.859-19.144,9.2-29.108,12.935      c-5.17,1.938-10.935-0.683-12.873-5.855c-1.938-5.171,0.683-10.935,5.854-12.874c10.896-4.083,21.532-8.948,31.614-14.459      c3.153-1.722,6.986-1.623,10.045,0.262c34.382,21.195,75.678,31.499,126.248,31.499c4.377,0,8.889-0.08,13.409-0.238      c2.674-0.098,5.302,0.9,7.249,2.757s3.064,4.42,3.099,7.11c0.269,21.115,0.683,39.959,1.049,56.584      c0.438,19.913,0.815,37.11,0.815,52.174c0,41.718-2.723,69.281-17.083,95.423c-13.134,23.908-34.52,44.946-77.49,83.062      C315.743,410.17,313.375,411,311.016,411z M111.006,251c-5.385,0-9.829-4.283-9.99-9.702      c-0.465-15.593-0.691-32.213-0.691-50.811c0-22.787,0.343-46.127,0.674-68.699l0.014-0.936c0.04-2.689,1.161-5.249,3.11-7.102      s4.568-2.848,7.25-2.745c20.768,0.752,41.282-0.634,60.912-4.093c5.437-0.958,10.625,2.673,11.583,8.113      c0.958,5.439-2.673,10.625-8.112,11.583c-17.307,3.05-35.268,4.597-53.382,4.597c-0.502,0-1.005-0.001-1.51-0.003      c-0.292,20.204-0.539,39.589-0.539,59.285c0,18.396,0.223,34.821,0.683,50.214c0.165,5.521-4.177,10.129-9.697,10.294      C111.208,250.999,111.107,251,111.006,251z"/></g></g><g><path d="M421.012,481h-340c-5.523,0-10-4.478-10-10s4.477-10,10-10h340c5.522,0,10,4.478,10,10S426.534,481,421.012,481z"/></g><g><path d="M235,305.127c-0.422,0-0.846-0.026-1.269-0.081c-2.794-0.357-5.309-1.877-6.924-4.185l-25.646-36.639     c-3.167-4.524-2.066-10.76,2.458-13.927c4.524-3.167,10.76-2.066,13.927,2.458l19.339,27.629l63.438-54.052     c4.202-3.582,10.516-3.078,14.097,1.126c3.582,4.204,3.078,10.515-1.126,14.097l-71.81,61.184     C239.665,304.289,237.362,305.127,235,305.127z"/></g></g></g><text x="0" y="527" fill="#000000" font-size="5px" font-weight="bold" font-family="'Helvetica Neue', Helvetica, Arial-Unicode, Arial, Sans-serif">Created by Flatart</text><text x="0" y="532" fill="#000000" font-size="5px" font-weight="bold" font-family="'Helvetica Neue', Helvetica, Arial-Unicode, Arial, Sans-serif">from the Noun Project</text></svg>