<svg id="Capa_1" enable-background="new 0 0 512 512" height="512" viewBox="0 0 512 512" width="512" xmlns="http://www.w3.org/2000/svg"><g><path d="m507.607 25.607c5.858-5.858 5.858-15.355 0-21.213-5.857-5.858-15.355-5.858-21.213 0l-14.697 14.696c-15.659-11.372-34.907-18.09-55.697-18.09-51.363 0-93.33 40.974-94.946 91.95l-4.505-4.504c-11.723-11.724-30.7-11.726-42.426 0l-34.787 34.787c-11.724 11.723-11.726 30.701 0 42.426l4.454 4.454c-49.97 1.582-90.324 41.938-91.902 91.909l-4.606-4.606c-11.723-11.724-30.701-11.727-42.426 0l-34.786 34.787c-11.724 11.723-11.726 30.701 0 42.426l43.044 43.044-108.72 108.721c-5.858 5.858-5.858 15.355 0 21.213 5.857 5.858 15.355 5.859 21.213 0l108.721-108.721 42.53 42.529c11.724 11.725 30.701 11.726 42.426.001l34.788-34.788c11.696-11.697 11.696-30.729 0-42.425l-4.197-4.197c49.971-1.578 90.327-41.932 91.909-91.902l4.341 4.341c11.722 11.724 30.701 11.727 42.426 0l34.788-34.787c11.696-11.697 11.696-30.729 0-42.425l-4.286-4.287c50.974-1.616 91.947-43.583 91.947-94.946 0-20.79-6.718-40.038-18.09-55.697zm-309.537 394.596c-49.081-49.081 80.652 80.652-106.787-106.787l34.787-34.787c86.196 86.196-30.085-30.085 106.787 106.787zm48.766-90.144c-35.841 0-65-29.159-65-65s29.159-65 65-65 65 29.159 65 65-29.159 65-65 65zm120.501-78.826c-2.896-2.896-104.632-104.632-106.787-106.787l34.787-34.787c14.804 14.803 93.659 93.658 106.787 106.787zm48.663-90.233c-35.841 0-65-29.159-65-65s29.159-65 65-65 65 29.159 65 65-29.159 65-65 65z"/></g></svg>