<svg xmlns="http://www.w3.org/2000/svg"  viewBox="0 0 512 512" stroke="black" stroke-width="1" x="0px" y="0px"><path d="M472.167,138.343a72,72,0,0,0-101.824,0,8,8,0,0,0,0,11.314l22.627,22.627a8,8,0,0,0,11.313,0,24,24,0,0,1,33.943,33.941,8,8,0,0,0,0,11.314l22.628,22.628a8,8,0,0,0,11.314,0,72,72,0,0,0,0-101.824Zm-6.061,84.45-11.473-11.474A40.01,40.01,0,0,0,399.2,155.882L387.717,144.4a56,56,0,0,1,78.389,78.39Z"/><path d="M104,183.959a87.732,87.732,0,0,0,62.226-25.733,8,8,0,0,0,0-11.315L53.089,33.774a8,8,0,0,0-11.315,0A87.959,87.959,0,0,0,104,183.959Zm-9.06-78.9-3.217,28.992a39.848,39.848,0,0,1-25.775-25.775ZM64.187,92.377a39.882,39.882,0,0,1,6.441-18.436l15.949,15.95Zm45.922,21.046,15.949,15.949a39.882,39.882,0,0,1-18.435,6.441ZM47.744,51.058,59.156,62.469a56,56,0,0,0,78.375,78.375l11.411,11.412a72,72,0,0,1-101.2-101.2Z"/><path d="M229.683,143l-19.34,19.341a8,8,0,0,0,11.314,11.314L241,154.316A39.991,39.991,0,1,0,315.4,124.974q1.255-1.064,2.421-2.229a40,40,0,0,0-56.569-56.569q-1.164,1.164-2.229,2.421A40.253,40.253,0,0,0,216,77.49,39.974,39.974,0,0,0,229.683,143Zm-2.369-54.2a24.113,24.113,0,0,1,29.951-3.216,8,8,0,0,0,11.318-2.821,24,24,0,1,1,32.65,32.65,8,8,0,0,0-2.821,11.318,24.113,24.113,0,0,1-3.217,29.952,23.985,23.985,0,0,1-40.919-15.648l23.548-23.549a8,8,0,1,0-11.314-11.314l-23.546,23.545A23.987,23.987,0,0,1,227.314,88.8Z"/><path d="M464,288a40.061,40.061,0,0,0-35.2-39.714,40.017,40.017,0,0,0-68.518-8.663A71.917,71.917,0,0,0,239.2,227.839,31.561,31.561,0,0,0,232,225v-1a32,32,0,0,0-64,0v.994a31.777,31.777,0,0,0-19.868,15.237c-22.173-15.4-53.4-20.846-93.068-16.176A8,8,0,0,0,48,232c0,1.34.187,29.011,13.463,56H48a8,8,0,0,0-8,8v32A120.136,120.136,0,0,0,160,448h16v24a8,8,0,0,0,8,8H328a8,8,0,0,0,8-8V448h16A120.136,120.136,0,0,0,472,328V296A8,8,0,0,0,464,288Zm-95.252-29.979a24.011,24.011,0,0,1,46.5,0,8.047,8.047,0,0,0,8.008,6l.369-.014c.122,0,.245-.012.371-.012a24.028,24.028,0,0,1,24,24H366.2a72.128,72.128,0,0,0,.977-26.9A7.917,7.917,0,0,0,368.748,258.021ZM296,216a56.042,56.042,0,0,1,53.68,72H332.645a40,40,0,1,0-73.29,0H242.32A56.042,56.042,0,0,1,296,216Zm-17.88,72a24,24,0,1,1,35.76,0ZM160.075,254.485A15.916,15.916,0,0,1,176,240a8,8,0,0,0,8-8v-8a16,16,0,0,1,32,0v8a8,8,0,0,0,8,8,15.923,15.923,0,0,1,6.789,1.523A71.847,71.847,0,0,0,225.8,288H162.153a16.067,16.067,0,0,1,5.015-5.337,8,8,0,0,0,0-13.326A15.988,15.988,0,0,1,160,256Q160,255.284,160.075,254.485Zm-16.049,2.756A31.907,31.907,0,0,0,151.02,276a31.878,31.878,0,0,0-6.006,12h-6.207L76.916,238.487C106.024,237.776,128.529,244.058,144.026,257.241ZM66,250.247,113.193,288H79.673C71.891,275.16,67.974,261.079,66,250.247ZM320,464H192V448H320ZM456,328A104.118,104.118,0,0,1,352,432H160A104.118,104.118,0,0,1,56,328V304H456Z"/></svg>