<?xml version="1.0" encoding="iso-8859-1"?>
<!-- Generator: Adobe Illustrator 17.1.0, SVG Export Plug-In . SVG Version: 6.00 Build 0)  -->
<svg version="1.1" id="Capa_1" xmlns="http://www.w3.org/2000/svg" x="0px" y="0px" viewBox="0 0 192.696 192.696" style="enable-background:new 0 0 192.696 192.696;"
	xml:space="preserve">
<path d="M159.366,192.422c-7.064,0-12.811-5.747-12.811-12.812c0-2.501,0.72-4.837,1.964-6.811H87.932
	c1.244,1.974,1.964,4.31,1.964,6.811c0,7.064-5.747,12.812-12.811,12.812s-12.811-5.747-12.811-12.812
	c0-2.541,0.744-4.911,2.024-6.905c-6.165-0.71-11.312-5.347-12.557-11.544L32.983,57.748c-0.001-0.006-0.002-0.011-0.003-0.017
	l-3.598-18.209c-1.054-5.104-5.625-8.826-10.862-8.826H3c-1.657,0-3-1.343-3-3s1.343-3,3-3h15.521
	c8.069,0,15.111,5.735,16.743,13.639l3.127,15.823h10.633l25.063-17.822V18.608c0-1.657,1.343-3,3-3h47.593l-0.846-2.296
	c-0.291-0.788-0.237-1.661,0.146-2.408s1.063-1.299,1.873-1.521l32.718-9c0.776-0.214,1.603-0.107,2.298,0.296
	c0.695,0.402,1.201,1.067,1.402,1.845l13.366,51.635h14.06c0.895,0,1.743,0.399,2.313,1.09c0.57,0.69,0.802,1.599,0.632,2.478
	l-13.354,69.332c-2.264,11.752-12.593,20.282-24.562,20.282H57.088l2.538,12.64c0.793,3.952,4.295,6.82,8.326,6.82h91.415
	c7.064,0,12.811,5.747,12.811,12.811C172.177,186.675,166.43,192.422,159.366,192.422z M159.366,172.8
	c-3.755,0-6.811,3.056-6.811,6.811c0,3.756,3.055,6.812,6.811,6.812c3.756,0,6.811-3.056,6.811-6.812
	C166.177,175.855,163.122,172.8,159.366,172.8z M77.086,172.8c-3.755,0-6.811,3.056-6.811,6.811c0,3.756,3.056,6.812,6.811,6.812
	s6.811-3.056,6.811-6.812C83.896,175.855,80.841,172.8,77.086,172.8z M56.167,141.34h98.56c9.097,0,16.949-6.483,18.67-15.417
	l12.667-65.765h-12.685c-0.045,0.001-0.089,0.001-0.133,0h-13.86c-0.012,0-0.025,0-0.037,0h-39.691c-0.007,0-0.012,0-0.018,0h-9.921
	c-0.046,0.002-0.093,0.002-0.139,0H84.052c-0.047,0.002-0.093,0.002-0.14,0h-33.89c-0.025,0-0.051,0-0.077,0H39.599L56.167,141.34z
	 M160.741,54.158h8.698L157.225,6.975l-26.633,7.326l0.481,1.307h23.241c1.657,0,3,1.343,3,3v31.576L160.741,54.158z
	 M127.254,54.158h25.564l-0.741-0.859c-0.024-0.027-0.048-0.055-0.071-0.083l-10.592-12.284L127.254,54.158z M113.734,54.158h4.73
	L139.6,34.416c0.597-0.558,1.4-0.839,2.209-0.804c0.815,0.045,1.577,0.419,2.11,1.037l7.395,8.576V21.608H129.05
	c-0.046,0.002-0.092,0.002-0.137,0H80.086v16.234c0,0.025,0,0.051,0,0.077v16.238h1.728L90.133,29
	c0.252-0.764,0.801-1.394,1.523-1.749s1.556-0.405,2.315-0.141l22.719,7.941c1.529,0.534,2.357,2.186,1.873,3.73L113.734,54.158z
	 M88.133,54.158h19.312l4.522-14.401l-17.096-5.976L88.133,54.158z M59.377,54.158h14.709v-10.46L59.377,54.158z"/>
<g>
</g>
<g>
</g>
<g>
</g>
<g>
</g>
<g>
</g>
<g>
</g>
<g>
</g>
<g>
</g>
<g>
</g>
<g>
</g>
<g>
</g>
<g>
</g>
<g>
</g>
<g>
</g>
<g>
</g>
</svg>
