<svg height="682pt" viewBox="-21 -42 682.66669 682" width="682pt" xmlns="http://www.w3.org/2000/svg"><path d="m561.179688 78.707031h-.96875v-.972656c0-43.460937-35.359376-78.816406-78.820313-78.816406h-402.570313c-43.464843 0-78.820312 35.355469-78.820312 78.816406v246.367187c0 42.539063 33.871094 77.320313 76.0625 78.769532v114.117187l55.949219-38.925781c8.316406 2.992188 17.265625 4.648438 26.601562 4.648438h241.394531l163.929688 114.066406v-114.109375c42.191406-1.457031 76.0625-36.230469 76.0625-78.777344v-246.367187c0-43.460938-35.355469-78.816407-78.820312-78.816407zm-523.679688 245.394531v-246.367187c0-22.78125 18.535156-41.316406 41.320312-41.316406h402.570313c22.785156 0 41.320313 18.535156 41.320313 41.316406v246.367187c0 22.785157-18.535157 41.320313-41.320313 41.320313h-253.164063l-114.664062 79.789063v-79.789063h-34.742188c-22.785156 0-41.320312-18.535156-41.320312-41.320313zm565 79.789063c0 22.785156-18.535156 41.320313-41.320312 41.320313h-34.742188v79.789062l-114.664062-79.789062h-232.558594l60.777344-42.289063h241.398437c43.460937 0 78.820313-35.359375 78.820313-78.820313v-207.894531h.96875c22.785156 0 41.320312 18.535157 41.320312 41.316407zm0 0"/><path d="m186.429688 175.148438h37.34375v37.34375h-37.34375zm0 0"/><path d="m261.429688 175.148438h37.34375v37.34375h-37.34375zm0 0"/><path d="m336.429688 175.980469h37.34375v37.34375h-37.34375zm0 0"/></svg>