<svg height="512" viewBox="0 0 60 57" width="512" xmlns="http://www.w3.org/2000/svg">
    <g id="Page-1" fill="none" fill-rule="evenodd">
        <g id="012---Card" fill="rgb(0,0,0)">
            <path id="Shape"
                d="m55.392 13.69-35.711-13c-3.6333499-1.31165795-7.6434729.56041822-8.971 4.188l-6.434 17.674c-2.58978925 1.0969197-4.27324317 3.6354863-4.276 6.448v21c.00440864 3.8641657 3.13583434 6.9955914 7 7h38c3.8641657-.0044086 6.9955914-3.1358343 7-7v-6.739c.1496692-.2804319.2799736-.5707767.39-.869l7.149-19.618.041-.111c1.314156-3.6339905-.5585497-7.6463564-4.188-8.973zm.252 13.918-4.311-1.572c-1.1496406-2.4596723-3.6179217-4.0326997-6.333-4.036h-4.765l-29.693-10.808 1.618-4.449.088-.241 45.109 16.415zm-45.788-14.537 24.533 8.929h-27.389c-.136 0-.269.013-.4.02zm40.144 36.929c-.0033061 2.7600532-2.2399468 4.9966939-5 5h-38c-2.76005315-.0033061-4.99669388-2.2399468-5-5v-21c.00330612-2.7600532 2.23994685-4.9966939 5-5h38c2.7600532.0033061 4.9966939 2.2399468 5 5zm2-12.379v-8.621c0-.2-.013-.4-.031-.6l2.994 1.092zm5.946-16.621-44.918-16.343c1.2462069-2.02094628 3.7380428-2.89217089 5.972-2.088l35.71 13c2.2283707.8159632 3.5790798 3.082867 3.236 5.431z" />
            <path id="Shape"
                d="m14 37c1.6568542 0 3-1.3431458 3-3v-4c0-1.6568542-1.3431458-3-3-3h-6c-1.65685425 0-3 1.3431458-3 3v4c0 1.6568542 1.34314575 3 3 3zm0-2h-3v-2h4v1c0 .5522847-.4477153 1-1 1zm1-5v1h-4v-2h3c.5522847 0 1 .4477153 1 1zm-7-1h1v2h-2v-1c0-.5522847.44771525-1 1-1zm-1 5v-1h2v2h-1c-.55228475 0-1-.4477153-1-1z" />
            <path id="Shape"
                d="m8 43c-.55228475 0-1 .4477153-1 1s.44771525 1 1 1h6c.5522847 0 1-.4477153 1-1s-.4477153-1-1-1z" />
            <path id="Shape"
                d="m24 43h-6c-.5522847 0-1 .4477153-1 1s.4477153 1 1 1h6c.5522847 0 1-.4477153 1-1s-.4477153-1-1-1z" />
            <path id="Shape"
                d="m34 43h-6c-.5522847 0-1 .4477153-1 1s.4477153 1 1 1h6c.5522847 0 1-.4477153 1-1s-.4477153-1-1-1z" />
            <path id="Shape"
                d="m44 43h-6c-.5522847 0-1 .4477153-1 1s.4477153 1 1 1h6c.5522847 0 1-.4477153 1-1s-.4477153-1-1-1z" />
            <path id="Shape"
                d="m10 49h-2c-.55228475 0-1 .4477153-1 1s.44771525 1 1 1h2c.5522847 0 1-.4477153 1-1s-.4477153-1-1-1z" />
            <path id="Shape"
                d="m17 49h-2c-.5522847 0-1 .4477153-1 1s.4477153 1 1 1h2c.5522847 0 1-.4477153 1-1s-.4477153-1-1-1z" />
            <path id="Shape"
                d="m43 28c-1.1531181.003719-2.247792.5079987-3 1.382-1.093225-1.2628661-2.8560646-1.7134762-4.4212104-1.1301323-1.5651459.5833438-2.6030376 2.0778115-2.6030376 3.7481323s1.0378917 3.1647885 2.6030376 3.7481323c1.5651458.5833439 3.3279854.1327338 4.4212104-1.1301323 1.2110928 1.3866594 3.2134336 1.7652231 4.8471665.916408 1.6337329-.848815 2.4750835-2.7048345 2.0366995-4.4929591s-2.0427901-3.0445323-3.883866-3.0414489zm-6 6c-1.1045695 0-2-.8954305-2-2s.8954305-2 2-2 2 .8954305 2 2-.8954305 2-2 2zm6 0c-1.1045695 0-2-.8954305-2-2s.8954305-2 2-2 2 .8954305 2 2-.8954305 2-2 2z" />
        </g>
    </g>
</svg>