<svg height="512" viewBox="0 0 60 60" width="512" xmlns="http://www.w3.org/2000/svg"><g id="Page-1" fill="none" fill-rule="evenodd"><g id="019---Sushi" fill="rgb(0,0,0)" fill-rule="nonzero"><path id="Shape" d="m11 52h27.546l1.608 5.278c.4181936 1.3358469 1.5274741 2.3401541 2.8981848 2.6239238 1.3707106.2837698 2.7875553-.1975692 3.7017486-1.2575803.9141933-1.0600112 1.1821439-2.5321995.7000666-3.8463435l-1.488-4c1.8958135-.9506021 3.4719399-2.4353035 4.534-4.271l2.146 4.639c.5962416 1.2677093 1.8331352 2.11231 3.2309107 2.2061958 1.3977756.0938857 2.7365094-.5777153 3.4969293-1.7543004.7604198-1.1765852.8228826-2.6730325.16316-3.9088954l-7.537-14.001v-22.708c-.0071635-6.07216255-4.9278374-10.9928365-11-11h-30c-6.07216255.0071635-10.9928365 4.92783745-11 11v30c.0071635 6.0721626 4.92783745 10.9928365 11 11zm35-29.436-7.673-14.25c-.6367361-1.19823684-2.1130517-1.66979421-3.3264915-1.06253136-1.2134399.60726285-1.7209353 2.07161334-1.1435085 3.29953136l12.143 26.249v4.2c-.0003263 1.6383934-.8069825 3.1716759-2.157 4.1l-12-32.234c-.4616738-1.2802308-1.8625805-1.9559915-3.1519202-1.5204038-1.2893397.4355878-1.9934019 1.8224866-1.5840798 3.1204038l9.61 31.534h-25.717c-2.76005315-.0033061-4.99669388-2.2399468-5-5v-30c.00330612-2.76005315 2.23994685-4.99669388 5-5h30c2.7600532.00330612 4.9966939 2.23994685 5 5zm-1.513 35.319c-.4624563.17222-.97449.1529655-1.4227064-.0534993-.4482163-.2064648-.7956266-.5831016-.9652936-1.0465007l-13.077-42.9c-.0889178-.261783.051217-.5460821.313-.635.261783-.0889178.5460821.051217.635.313l12.416 33.359 3.192 8.58c.3563201.9593019-.1319919 2.0258899-1.091 2.383zm.778-8.962-.7-1.9c2.0985538-1.239174 3.3978708-3.4840692 3.427-5.921l1.415 3.058c-.751655 2.040821-2.2252601 3.7353601-4.142 4.763zm11.757 2.25c-.4332322.2337862-.9416869.2855698-1.4131551.143923-.4714682-.1416469-.8671936-.4650803-1.0998449-.898923l-18.838-40.706c-.1228834-.24852814-.0210281-.54961664.2275-.67249999.2485281-.12288336.5496166-.02102814.6725.22749999l21.206 39.392c.2343778.433273.2864858.9420686.1447995 1.413856-.1416864.4717875-.4654916.8676895-.8997995 1.100144zm-55.022-40.171c.00551113-4.96827817 4.03172183-8.99448887 9-9h30c4.9682782.00551113 8.9944889 4.03172183 9 9v18.993l-2-3.714v-15.279c-.0044086-3.86416566-3.1358343-6.99559136-7-7h-30c-3.86416566.00440864-6.99559136 3.13583434-7 7v30c.00440864 3.8641657 3.13583434 6.9955914 7 7h26.327l.609 2h-26.936c-4.96827817-.0055111-8.99448887-4.0317218-9-9z"/><path id="Shape" d="m17 7c-4.411 0-8 2.691-8 6v6c0 3.309 3.589 6 8 6s8-2.691 8-6v-6c0-3.309-3.589-6-8-6zm0 2c3.252 0 6 1.832 6 4s-2.748 4-6 4-6-1.832-6-4 2.748-4 6-4zm0 14c-3.252 0-6-1.832-6-4v-2.045c1.6983899 1.3640265 3.8220974 2.0878568 6 2.045 2.1779026.0428568 4.3016101-.6809735 6-2.045v2.045c0 2.168-2.748 4-6 4z"/><path id="Shape" d="m16 13h2c.5522847 0 1-.4477153 1-1s-.4477153-1-1-1h-2c-.5522847 0-1 .4477153-1 1s.4477153 1 1 1z"/><path id="Shape" d="m17 27c-4.411 0-8 2.691-8 6v6c0 3.309 3.589 6 8 6s8-2.691 8-6v-6c0-3.309-3.589-6-8-6zm0 2c3.252 0 6 1.832 6 4s-2.748 4-6 4-6-1.832-6-4 2.748-4 6-4zm0 14c-3.252 0-6-1.832-6-4v-2.045c1.6983899 1.3640265 3.8220974 2.0878568 6 2.045 2.1779026.0428568 4.3016101-.6809735 6-2.045v2.045c0 2.168-2.748 4-6 4z"/><path id="Shape" d="m16 33h2c.5522847 0 1-.4477153 1-1s-.4477153-1-1-1h-2c-.5522847 0-1 .4477153-1 1s.4477153 1 1 1z"/></g></g></svg>