<svg id="Capa_1" enable-background="new 0 0 512 512" height="512" viewBox="0 0 512 512" width="512" xmlns="http://www.w3.org/2000/svg"><g><path d="m162.111 368.91c-3.3-34.09 1.65-63.68 14.73-87.96 13.27-24.63 34.039-42.24 60.069-50.93 2.15-.72 4.32-1.37 6.5-1.95-7.01-8.23-10.91-18.61-10.91-29.56v-60.86c0-38.288-27.939-70.167-64.497-76.347-.483-10.807-3.351-24.978-13.195-37.185-12.905-16.004-33.62-24.118-61.569-24.118v30c18.323 0 31.141 4.308 38.096 12.803 4.878 5.958 6.403 13.398 6.719 19.295-34.56 7.765-60.452 38.688-60.452 75.552v60.43c0 14.27-6.54 27.86-17.5 36.35-18.63 14.45-33.949 33.24-44.309 54.34-10.89 22.17-16.19 46.04-15.77 70.92 1.44 84.38 70.809 152.31 155.038 152.31.63 0 1.27 0 1.91-.01 21.14-.26 41.869-4.85 60.939-13.32-8.89-9.84-17.12-21.25-24.55-34.11-16.78-29.04-28.169-63.91-31.249-95.65z"/><path d="m499.867 295.176c-9.577-17.78-24.5-30.469-43.155-36.698-30.468-10.171-65.85-1.451-92.688 20.514 1.897-20.747 10.839-45.666 40.376-57.478l-11.139-27.855c-32.881 13.149-53.021 39.444-58.239 76.042-.27 1.892-.492 3.765-.671 5.611-26.174-19.231-59.242-26.415-87.944-16.833-18.654 6.229-33.577 18.918-43.154 36.698-10.205 18.946-14.001 42.781-11.282 70.844 5.267 54.345 38.965 121.659 86.239 140.236 7.412 2.913 16.379 5.135 26.498 5.135 13.827 0 29.796-4.151 46.851-16.362 29.535 21.148 55.809 18.121 73.348 11.228 47.275-18.578 80.972-85.891 86.239-140.236 2.721-28.064-1.075-51.9-11.279-70.846z"/></g></svg>