<svg xmlns="http://www.w3.org/2000/svg" version="1.1" x="0px" y="0px" viewBox="0 0 100 125"
    enable-background="new 0 0 100 100" xml:space="preserve"><g><g><path d="M50.392,93.658c-1.547,0-2.567-1.174-3.4-2.298c-1.72-2.001-28.16-33.103-28.16-52.778    c0-17.402,14.158-31.56,31.561-31.56c5.05,0,9.876,1.157,14.344,3.44c0.983,0.503,1.373,1.708,0.871,2.691    c-0.504,0.982-1.705,1.372-2.691,0.871c-3.898-1.993-8.112-3.003-12.523-3.003c-15.197,0-27.561,12.363-27.561,27.56    c0,18.422,26.967,49.908,27.239,50.224c0.033,0.039,0.065,0.079,0.096,0.12c0.084,0.114,0.159,0.213,0.226,0.299    c0.067-0.086,0.143-0.185,0.227-0.299c0.035-0.047,0.071-0.092,0.109-0.135c0.661-0.771,27.227-31.858,27.227-50.209    c0-2.419-0.313-4.819-0.933-7.133c-0.054-0.202-0.111-0.407-0.17-0.61c-0.308-1.062,0.304-2.171,1.364-2.478    c1.062-0.306,2.171,0.303,2.478,1.364c0.066,0.229,0.13,0.457,0.192,0.688c0.709,2.653,1.068,5.401,1.068,8.169    c0,8.44-4.776,19.927-14.195,34.141c-4.051,6.112-11.332,15.818-13.969,18.54l0.049,0.036    C52.999,92.44,51.969,93.658,50.392,93.658z M50.392,54.025c-8.657,0-15.7-7.044-15.7-15.701s7.043-15.7,15.7-15.7    c8.658,0,15.702,7.043,15.702,15.7S59.05,54.025,50.392,54.025z M50.392,26.624c-6.451,0-11.7,5.249-11.7,11.7    c0,6.452,5.249,11.701,11.7,11.701c6.452,0,11.702-5.249,11.702-11.701C62.094,31.873,56.844,26.624,50.392,26.624z"/></g></g><g><path d="M80.442,17.934l5.393-5.393c0.721-0.721,0.721-1.89,0-2.611c-0.721-0.721-1.89-0.721-2.611,0l-5.393,5.393l-5.393-5.393   c-0.721-0.721-1.89-0.721-2.611,0c-0.721,0.721-0.721,1.89,0,2.611l5.393,5.393l-5.393,5.393c-0.721,0.721-0.721,1.89,0,2.611   c0.361,0.361,0.833,0.541,1.306,0.541c0.472,0,0.945-0.18,1.306-0.541l5.393-5.393l5.393,5.393   c0.361,0.361,0.833,0.541,1.306,0.541c0.472,0,0.945-0.18,1.306-0.541c0.721-0.721,0.721-1.89,0-2.611L80.442,17.934z"/></g></svg>