<svg xmlns="http://www.w3.org/2000/svg" viewBox="0 0 24 24" x="0px" y="0px"><path d="M14,16 L14,20.25 C14,21.2164983 13.1045695,22 12,22 C10.8954305,22 10,21.2164983 10,20.25 L10,16 L9,16 C7.8954305,16 7,15.1045695 7,14 L7,7 C7,4.23857625 9.23857625,2 12,2 C14.7614237,2 17,4.23857625 17,7 L17,14 C17,15.1045695 16.1045695,16 15,16 L14,16 Z M13,16 L11,16 L11,20.1666667 C11,20.626904 11.4477153,21 12,21 C12.5522847,21 13,20.626904 13,20.1666667 L13,16 Z M9,15 L15,15 C15.5522847,15 16,14.5522847 16,14 L16,7 C16,4.790861 14.209139,3 12,3 C9.790861,3 8,4.790861 8,7 L8,14 C8,14.5522847 8.44771525,15 9,15 Z M9.86572266,7.51098633 C9.86572266,7.23484395 10.0895803,7.01098633 10.3657227,7.01098633 C10.641865,7.01098633 10.8657227,7.23484395 10.8657227,7.51098633 L10.8657227,13 C10.8657227,13.2761424 10.641865,13.5 10.3657227,13.5 C10.0895803,13.5 9.86572266,13.2761424 9.86572266,13 L9.86572266,7.51098633 Z M13,7.51098633 C13,7.23484395 13.2238576,7.01098633 13.5,7.01098633 C13.7761424,7.01098633 14,7.23484395 14,7.51098633 L14,13 C14,13.2761424 13.7761424,13.5 13.5,13.5 C13.2238576,13.5 13,13.2761424 13,13 L13,7.51098633 Z"/></svg>