<svg id="Capa_1" enable-background="new 0 0 511.864 511.864" height="512" viewBox="0 0 511.864 511.864" width="512" xmlns="http://www.w3.org/2000/svg"><g><g><g><path d="m283.591 121.959c-5.229 0-10.177-2.742-12.912-7.372-.596-1.009-5.939-10.231-9.862-23.066-5.667-18.537-5.457-35.59.607-49.313 6.064-13.724 18.531-25.361 36.052-33.652 12.131-5.741 22.547-8 23.695-8.239 6.284-1.308 12.704 1.529 15.969 7.056.596 1.009 5.939 10.231 9.863 23.066 5.667 18.538 5.457 35.59-.607 49.314-6.064 13.725-18.531 25.361-36.052 33.653-12.131 5.741-22.547 8-23.695 8.239-1.02.211-2.045.314-3.058.314z" fill="#c6001c"/><path d="m227.738 121.959c-1.013 0-2.037-.103-3.058-.315-1.147-.239-11.563-2.498-23.695-8.239-17.521-8.291-29.988-19.928-36.052-33.653-6.065-13.724-6.274-30.776-.608-49.314 3.924-12.834 9.267-22.057 9.863-23.066 3.265-5.527 9.686-8.366 15.969-7.056 1.148.239 11.563 2.498 23.695 8.239 17.521 8.292 29.988 19.928 36.052 33.652s6.274 30.777.607 49.314c-3.924 12.835-9.267 22.057-9.863 23.066-2.734 4.63-7.682 7.372-12.91 7.372z" fill="#f90024"/></g><g><path d="m255.932 511.864c-112.436 0-203.908-87.2-203.908-194.383 0-34.53 9.623-68.447 27.829-98.085 17.594-28.643 42.757-52.685 72.769-69.526 3.485-1.956 5.132-6.234 3.917-10.175-7.276-23.599-18.732-61.057-18.847-61.433-1.321-4.32-.625-9.005 1.895-12.754s6.595-6.163 11.094-6.571c1.454-.132 30.607-2.598 59.218 8.046 12.66-28.053 35.294-47.159 36.428-48.105 5.564-4.638 13.647-4.638 19.21 0 1.135.946 23.768 20.052 36.428 48.105 28.611-10.644 57.763-8.179 59.218-8.046 4.499.408 8.574 2.822 11.094 6.571s3.216 8.434 1.895 12.754c-.115.375-11.571 37.833-18.847 61.433-1.215 3.94.433 8.219 3.917 10.175 30.013 16.842 55.176 40.884 72.77 69.526 18.206 29.638 27.829 63.555 27.829 98.085zm85.059-376.589h.01z" fill="#ff405c"/><path d="m432.012 219.396c-17.594-28.643-42.757-52.685-72.77-69.526-3.484-1.956-5.132-6.234-3.917-10.175 7.276-23.599 18.732-61.057 18.847-61.433 1.321-4.32.625-9.005-1.895-12.754s-6.595-6.163-11.094-6.571c-1.455-.133-30.607-2.598-59.218 8.046-12.66-28.053-35.294-47.159-36.428-48.105-3.141-2.618-7.084-3.757-10.924-3.419v496.389c.44.003.878.016 1.319.016l203.908-194.383c0-34.53-9.623-68.447-27.828-98.085z" fill="#ff1f3d"/></g></g><g><path d="m459.823 318.786h-128.431c-41.675 0-75.46 33.785-75.46 75.46v117.618c111.978 0 203.15-86.495 203.891-193.078z" fill="#fde4c3"/><g><path d="m326.302 463.213c-6.285 0-11.984-4.051-14.118-9.946-2.135-5.898-.222-12.67 4.609-16.644 4.844-3.984 11.833-4.472 17.211-1.27s8.23 9.659 6.999 15.79c-1.393 6.925-7.625 12.07-14.701 12.07z" fill="#c6001c"/><path d="m386.672 402.853c-6.259 0-12.024-4.056-14.12-9.953-2.092-5.885-.263-12.687 4.6-16.647 4.868-3.964 11.825-4.482 17.221-1.27 5.362 3.192 8.253 9.678 6.999 15.8-1.417 6.913-7.611 12.07-14.7 12.07z" fill="#c6001c"/><path d="m326.302 402.853c-6.285 0-11.985-4.065-14.118-9.953-2.134-5.888-.227-12.686 4.609-16.647 4.851-3.975 11.827-4.475 17.211-1.27 5.377 3.201 8.239 9.67 6.999 15.8-1.4 6.914-7.625 12.07-14.701 12.07z" fill="#ff1f3d"/></g></g></g></svg>