<svg id="Capa_1" enable-background="new 0 0 511.336 511.336" height="512" viewBox="0 0 511.336 511.336" width="512" xmlns="http://www.w3.org/2000/svg"><g><path d="m198.634 67.974c8.563-20.68 21.73-37.825 32.078-49.268-4.916-3.775-10.542-7.179-16.822-10.151-12.131-5.741-22.547-8-23.695-8.239-6.284-1.31-12.705 1.529-15.969 7.056-.596 1.009-5.939 10.231-9.863 23.066-2.947 9.641-4.275 18.868-4.046 27.446 11.908 1.711 25.248 4.759 38.317 10.09z"/><path d="m240.969 377.941c0-41.609 33.851-75.46 75.46-75.46h142.818c-2.372-29.294-11.638-57.754-27.198-83.085-17.594-28.643-42.757-52.685-72.77-69.526-3.484-1.956-5.132-6.234-3.917-10.175 5.254-17.041 12.686-41.303 16.455-53.616-15.954.783-39.916 4.1-59.636 15.828-2.351 1.398-5.004 2.107-7.668 2.107-1.961 0-3.928-.384-5.786-1.161-4.381-1.832-7.637-5.631-8.775-10.241-6.06-24.528-23.085-45.531-33.983-56.996-10.892 11.458-27.922 32.465-33.982 56.996-1.139 4.61-4.394 8.409-8.775 10.241-4.382 1.832-9.372 1.481-13.454-.946-19.721-11.728-43.682-15.046-59.637-15.828 3.769 12.313 11.201 36.575 16.455 53.616 1.215 3.94-.433 8.219-3.917 10.175-30.012 16.842-55.175 40.884-72.769 69.526-18.206 29.638-27.829 63.555-27.829 98.085 0 102.374 83.45 186.511 188.908 193.856z"/><path d="m313.304 67.974c12.872-5.25 26.011-8.29 37.781-10.015.239-8.599-1.089-17.853-4.045-27.521-3.924-12.834-9.267-22.057-9.863-23.066-3.265-5.527-9.685-8.364-15.969-7.056-1.148.239-11.564 2.498-23.695 8.239-6.145 2.908-11.663 6.231-16.505 9.908 10.38 11.443 23.673 28.686 32.296 49.511z"/><path d="m316.429 332.481c-25.066 0-45.46 20.393-45.46 45.46v133.396c100.259-6.983 180.626-83.373 188.306-178.856zm14.83 107.212c-.52 6.236-5.275 11.544-11.276 13.065-6.063 1.536-12.653-1.004-16.114-6.215-3.484-5.247-3.291-12.181.42-17.256 3.685-5.04 10.445-7.248 16.4-5.414 6.745 2.078 11.288 8.763 10.57 15.82zm0-60.371c-.509 6.236-5.28 11.55-11.276 13.069-6.07 1.538-12.648-1.009-16.114-6.219-3.488-5.242-3.289-12.184.42-17.256 3.695-5.053 10.436-7.224 16.4-5.414 6.751 2.05 11.286 8.786 10.57 15.82zm60.37 0c-.635 6.25-5.192 11.528-11.28 13.069-6.075 1.538-12.643-1.013-16.12-6.219-3.468-5.192-3.309-12.245.429-17.255 3.756-5.034 10.385-7.232 16.401-5.415 6.744 2.037 11.291 8.796 10.57 15.82z"/></g></svg>