<svg xmlns="http://www.w3.org/2000/svg" version="1.1" x="0px" y="0px" viewBox="0 0 52 52" style="enable-background:new 0 0 52 52;" xml:space="preserve"><g><path d="M51.9,35c-2.3-17.9-17-32.6-34.8-34.9c-2.9-0.6-5.1,1.3-5.4,3.8c-0.1,1.1,0.2,2.2,0.8,3L0,50.6c-0.1,0.4,0,0.8,0.3,1.1   C0.6,52,1,52.1,1.4,52l43.7-12.4c0.9,0.6,1.9,0.9,3,0.8c0,0,0,0,0,0C50.5,40.1,52.4,37.9,51.9,35z M11.8,17.1   c1.2,0.6,1.9,1.8,1.9,3.1c0,1.9-1.6,3.5-3.5,3.5c-0.1,0-0.2,0-0.3,0L11.8,17.1z M9.3,25.8c0.3,0,0.6,0.1,0.9,0.1   c3.1,0,5.7-2.6,5.7-5.7c0-2.3-1.4-4.4-3.5-5.2l1.9-6.6c0.4,0.2,0.6,0.3,1.2,0.3c14.4,1.7,26.2,13.4,27.8,27.8   c0,0.4,0.2,0.8,0.3,1.2l-3.3,0.9c-0.9-3-3.8-5.2-7-5.2c-4.1,0-7.4,3.3-7.4,7.4c0,0.6,0.1,1.2,0.2,1.8L2.7,49.3L9.3,25.8z    M28.3,42.1c-0.1-0.4-0.2-0.8-0.2-1.2c0-2.9,2.3-5.2,5.2-5.2c2.3,0,4.2,1.5,4.9,3.6L28.3,42.1z M47.9,38.2   c-1.3,0.1-2.3-0.8-2.4-1.9c-1.8-15.4-14.3-28-29.7-29.7c-1.2-0.1-2.1-1.2-1.9-2.4c0.1-1.1,1.1-2.2,2.9-1.8   c17,2.2,30.8,16.1,33,33.1C50.1,37.1,49,38.1,47.9,38.2z"/><path d="M10.8,35.6c-2.5,0-4.4,2-4.4,4.4c0,2.5,2,4.4,4.4,4.4s4.4-2,4.4-4.4C15.3,37.6,13.3,35.6,10.8,35.6z M10.8,42.3   c-1.3,0-2.3-1-2.3-2.3c0-1.3,1-2.3,2.3-2.3s2.3,1,2.3,2.3C13.1,41.3,12.1,42.3,10.8,42.3z"/><path d="M33.3,28.3c1.9,0,3.5-1.6,3.5-3.5s-1.6-3.5-3.5-3.5c-1.9,0-3.5,1.6-3.5,3.5S31.4,28.3,33.3,28.3z M33.3,23.5   c0.7,0,1.3,0.6,1.3,1.3c0,0.7-0.6,1.3-1.3,1.3c-0.7,0-1.3-0.6-1.3-1.3C32,24.1,32.6,23.5,33.3,23.5z"/><path d="M21.9,21.4c-2.7,0-4.9,2.2-4.9,4.9s2.2,4.9,4.9,4.9s4.9-2.2,4.9-4.9S24.6,21.4,21.9,21.4z M21.9,29.1   c-1.5,0-2.8-1.2-2.8-2.8c0-1.5,1.2-2.8,2.8-2.8s2.8,1.2,2.8,2.8C24.7,27.8,23.4,29.1,21.9,29.1z"/><path d="M21.9,15.2c1.3,0,2.4,1.1,2.4,2.4c0,0.6,0.5,1.1,1.1,1.1c0.6,0,1.1-0.5,1.1-1.1c0-2.5-2-4.6-4.6-4.6   c-0.6,0-1.1,0.5-1.1,1.1S21.3,15.2,21.9,15.2z"/><path d="M19.3,33.8l-2.1,2.3c-0.4,0.4-0.4,1.1,0.1,1.5c0.4,0.4,1.1,0.4,1.5-0.1l2.1-2.3c0.4-0.4,0.4-1.1-0.1-1.5   C20.4,33.4,19.7,33.4,19.3,33.8z"/></g></svg>