<svg id="bold" enable-background="new 0 0 24 24" height="512" viewBox="0 0 24 24" width="512"
    xmlns="http://www.w3.org/2000/svg">
    <path
        d="m12 6c-3.309 0-6 2.691-6 6s2.691 6 6 6 6-2.691 6-6-2.691-6-6-6zm3 7h-2v2c0 .552-.448 1-1 1s-1-.448-1-1v-2h-2c-.552 0-1-.448-1-1s.448-1 1-1h2v-2c0-.552.448-1 1-1s1 .448 1 1v2h2c.552 0 1 .448 1 1s-.448 1-1 1z" />
    <path
        d="m1.5 12c0-5.789 4.71-10.5 10.5-10.5 2.079 0 4.055.607 5.732 1.707l-1.512 1.513c-.472.47-.139 1.28.53 1.28h4.5c.414 0 .75-.336.75-.75v-4.5c0-.665-.806-1.004-1.28-.53l-1.914 1.914c-1.971-1.369-4.322-2.134-6.806-2.134-6.617 0-12 5.383-12 12 0 1.173.173 2.339.513 3.466.119.395.534.621.935.502.396-.12.621-.538.501-.935-.298-.987-.449-2.007-.449-3.033z" />
    <path
        d="m23.487 8.534c-.12-.397-.535-.623-.935-.502-.396.12-.621.538-.501.935.298.987.449 2.007.449 3.033 0 5.789-4.71 10.5-10.5 10.5-2.075 0-4.048-.604-5.722-1.7l1.505-1.522c.468-.474.132-1.278-.533-1.278h-4.5c-.2 0-.393.08-.533.223s-.219.335-.217.535l.05 4.5c.006.666.819.99 1.283.519l1.878-1.899c1.967 1.362 4.312 2.122 6.789 2.122 6.617 0 12-5.383 12-12 0-1.173-.173-2.339-.513-3.466z" />
</svg>