<svg xmlns="http://www.w3.org/2000/svg" version="1.1" x="0px" y="0px" viewBox="0 0 44 44"
    style="enable-background:new 0 0 44 44;" xml:space="preserve"><g><g><path d="M9,16c0.3,0,0.5-0.1,0.7-0.3l3-3c0.4-0.4,0.4-1,0-1.4s-1-0.4-1.4,0l-3,3c-0.4,0.4-0.4,1,0,1.4C8.5,15.9,8.7,16,9,16z"/><path
    d="M15,16c0.3,0,0.5-0.1,0.7-0.3l3-3c0.4-0.4,0.4-1,0-1.4s-1-0.4-1.4,0l-3,3c-0.4,0.4-0.4,1,0,1.4C14.5,15.9,14.7,16,15,16z" /><path
    d="M21,16c0.3,0,0.5-0.1,0.7-0.3l3-3c0.4-0.4,0.4-1,0-1.4s-1-0.4-1.4,0l-3,3c-0.4,0.4-0.4,1,0,1.4C20.5,15.9,20.7,16,21,16z" /><path
    d="M27,16c0.3,0,0.5-0.1,0.7-0.3l3-3c0.4-0.4,0.4-1,0-1.4s-1-0.4-1.4,0l-3,3c-0.4,0.4-0.4,1,0,1.4C26.5,15.9,26.7,16,27,16z" /><path
    d="M33,16c0.3,0,0.5-0.1,0.7-0.3l3-3c0.4-0.4,0.4-1,0-1.4s-1-0.4-1.4,0l-3,3c-0.4,0.4-0.4,1,0,1.4C32.5,15.9,32.7,16,33,16z" /><path
    d="M43,27.7c0-0.1,0-0.2,0-0.3c0-0.7-0.3-1.3-0.8-1.8c0.5-0.6,0.8-1.3,0.8-2.2c0-0.8-0.3-1.6-0.8-2.2    c0.5-0.5,0.8-1.1,0.8-1.8c0-0.4-0.1-0.7-0.3-1.1C43.5,17.9,44,17,44,16c0-4.4-3.6-8-8-8H8c-4.4,0-8,3.6-8,8c0,1,0.5,1.9,1.3,2.4    C1.1,18.8,1,19.1,1,19.5c0,0.7,0.3,1.4,0.8,1.8C1.3,21.9,1,22.7,1,23.5c0,0.8,0.3,1.6,0.8,2.2C1.3,26.1,1,26.7,1,27.4    c0,0.1,0,0.2,0,0.3c-0.6,0.6-1,1.4-1,2.3c0,3.3,2.7,6,6,6h32c3.3,0,6-2.7,6-6C44,29.1,43.6,28.3,43,27.7z M40.6,27    c0.2,0,0.4,0.2,0.4,0.4c0,0.1,0,0.2-0.1,0.3c-1.4,1.4-3.4,1.7-5,0.7c-0.6-0.4-1.2-0.5-1.9-0.5c-0.7,0-1.3,0.2-1.9,0.6    c-1.3,0.8-2.9,0.8-4.2,0c-1.2-0.7-2.6-0.7-3.8,0c-1.3,0.8-2.9,0.8-4.2,0c-1.2-0.7-2.6-0.7-3.8,0c-1.3,0.8-2.9,0.8-4.2,0    c-1.2-0.7-2.6-0.7-3.8,0c-1.6,1-3.6,0.7-5-0.7C3,27.7,3,27.6,3,27.4C3,27.2,3.2,27,3.4,27h1.1h16h5h14H40.6z M3.5,20    C3.2,20,3,19.8,3,19.5S3.2,19,3.5,19h37c0.3,0,0.5,0.2,0.5,0.5S40.8,20,40.5,20h-1h-14h-5h-16H3.5z M24,23.5    c0-0.8,0.7-1.5,1.5-1.5h14c0.8,0,1.5,0.7,1.5,1.5S40.3,25,39.5,25h-14C24.7,25,24,24.3,24,23.5z M20.5,22c0.8,0,1.5,0.7,1.5,1.5    S21.3,25,20.5,25h-16C3.7,25,3,24.3,3,23.5S3.7,22,4.5,22H20.5z M8,10h28c3.3,0,6,2.7,6,6c0,0.6-0.4,1-1,1h-0.5h-37H3    c-0.6,0-1-0.4-1-1C2,12.7,4.7,10,8,10z M38,34H6c-2.2,0-4-1.8-4-4c0-0.2,0-0.3,0.1-0.5C3.2,30.5,4.6,31,6,31    c1.1,0,2.2-0.3,3.2-0.9c0.5-0.3,1.2-0.3,1.7,0c1.9,1.2,4.4,1.2,6.3,0c0.5-0.3,1.2-0.3,1.7,0c1.9,1.2,4.4,1.2,6.3,0    c0.5-0.3,1.2-0.3,1.7,0c1.9,1.2,4.4,1.2,6.3,0c0.5-0.3,1.2-0.3,1.7,0c1,0.6,2.1,0.9,3.2,0.9c1.4,0,2.8-0.5,3.9-1.5    C42,29.7,42,29.8,42,30C42,32.2,40.2,34,38,34z" /></g></g></svg>